<svg xmlns="http://www.w3.org/2000/svg" width="2175" height="465" viewBox="0 0 2175 465"><title>Kai Series</title><g fill="#fff"><circle cx="251.112" cy="351.569" r="112.615"/><circle cx="113.355" cy="113.432" r="112.614"/><circle cx="389.645" cy="113.208" r="112.614"/></g><g fill="#F86604"><polygon points="266.188,348.771 254.685,348.771 251.131,337.833 247.577,348.771 236.075,348.771 245.38,355.532 241.826,366.472 251.131,359.711 260.437,366.472 256.882,355.532"/><polygon points="172.7,85.781 161.198,85.781 157.644,74.843 154.089,85.781 142.587,85.781 151.893,92.542 148.338,103.481 157.644,96.721 166.949,103.481 163.395,92.542"/><polygon points="128.431,158.786 116.929,158.786 113.375,147.848 109.82,158.786 98.318,158.786 107.624,165.547 104.069,176.486 113.375,169.726 122.68,176.486 119.125,165.547"/><polygon points="86.492,85.781 74.989,85.781 71.435,74.843 67.881,85.781 56.379,85.781 65.685,92.542 62.13,103.481 71.435,96.721 80.741,103.481 77.186,92.542"/><polygon points="404.721,110.411 393.219,110.411 389.664,99.472 386.11,110.411 374.607,110.411 383.913,117.172 380.359,128.11 389.664,121.35 398.97,128.11 395.415,117.172"/><polygon points="404.721,54.492 393.219,54.492 389.664,43.553 386.11,54.492 374.607,54.492 383.913,61.253 380.359,72.191 389.664,65.432 398.97,72.191 395.415,61.253"/><polygon points="404.721,166.33 393.219,166.33 389.664,155.391 386.11,166.33 374.607,166.33 383.913,173.091 380.359,184.029 389.664,177.269 398.97,184.029 395.415,173.091"/><polygon points="455.203,139.924 443.7,139.924 440.146,128.984 436.593,139.924 425.09,139.924 434.396,146.685 430.841,157.623 440.146,150.862 449.452,157.623 445.897,146.685"/><polygon points="355.015,139.924 343.513,139.924 339.959,128.984 336.404,139.924 324.902,139.924 334.208,146.685 330.653,157.623 339.959,150.862 349.264,157.623 345.709,146.685"/><polygon points="354.238,83.229 342.736,83.229 339.182,72.289 335.628,83.229 324.126,83.229 333.431,89.988 329.877,100.928 339.182,94.167 348.487,100.928 344.933,89.988"/><polygon points="455.203,83.229 443.7,83.229 440.146,72.289 436.593,83.229 425.09,83.229 434.396,89.988 430.841,100.928 440.146,94.167 449.452,100.928 445.897,89.988"/></g><path d="M627.4 219.109l94.033-96.471h48.659l-109.209 109.47 109.835 132.334h-48.815l-86.992-107.59-7.51 7.517v100.073h-36.455v-241.804h36.454v96.471zm317.77 86.605h-103.42l-26.911 58.729h-39.271l119.535-256.995 115.311 256.995h-39.897l-25.347-58.729zm-14.864-34.297l-35.829-82.22-37.55 82.22h73.379zm146.759-148.779v241.804h-36.455v-241.804h36.455zm293.518 35.863l-29.57 17.541c-5.53-9.604-10.796-15.869-15.803-18.793-5.217-3.34-11.945-5.012-20.184-5.012-10.118 0-18.516 2.875-25.189 8.621-6.677 5.643-10.014 12.746-10.014 21.313 0 11.807 8.762 21.313 26.285 28.522l24.095 9.874c19.608 7.943 33.952 17.633 43.026 29.073 9.074 11.442 13.612 25.469 13.612 42.079 0 22.256-7.407 40.645-22.218 55.168-14.917 14.628-33.431 21.939-55.543 21.939-20.966 0-38.281-6.239-51.944-18.722-13.456-12.47-21.854-29.983-25.19-52.535l36.925-8.144c1.667 14.2 4.589 24.015 8.762 29.442 7.51 10.441 18.462 15.661 32.856 15.661 11.368 0 20.81-3.808 28.319-11.423s11.265-17.267 11.265-28.953c0-4.693-.652-8.998-1.955-12.91-1.306-3.913-3.34-7.513-6.103-10.799-2.765-3.286-6.336-6.365-10.717-9.232-4.382-2.868-9.599-5.608-15.646-8.218l-23.312-9.702c-33.066-13.979-49.598-34.429-49.598-61.347 0-18.152 6.936-33.333 20.81-45.539 13.871-12.311 31.135-18.468 51.788-18.468 27.849.003 49.598 13.525 65.243 40.564zm177.119-1.565h-96.849v58.102h94.032v34.297h-94.032v80.811h96.849v34.297h-133.304v-241.805h133.304v34.298zm123.296 104.458l74.788 103.049h-44.592l-68.998-98.977h-6.571v98.977h-36.455v-241.805h42.713c31.918 0 54.969 6.005 69.155 18.01 15.646 13.365 23.469 31.008 23.469 52.934 0 17.124-4.903 31.846-14.707 44.164-9.806 12.32-22.74 20.202-38.802 23.648zm-45.373-27.72h11.578c34.523 0 51.788-13.207 51.788-39.622 0-24.744-16.795-37.116-50.38-37.116h-12.986v76.738zm186.507-111.036v241.804h-36.455v-241.804h36.455zm184.941 34.298h-96.849v58.102h94.032v34.297h-94.032v80.811h96.849v34.297h-133.303v-241.805h133.304l-.001 34.298zm171.649 1.565l-29.57 17.541c-5.53-9.604-10.796-15.869-15.803-18.793-5.217-3.34-11.945-5.012-20.184-5.012-10.118 0-18.516 2.875-25.189 8.621-6.677 5.643-10.014 12.746-10.014 21.313 0 11.807 8.762 21.313 26.285 28.522l24.095 9.874c19.608 7.943 33.952 17.633 43.026 29.073 9.074 11.442 13.612 25.469 13.612 42.079 0 22.256-7.407 40.645-22.218 55.168-14.917 14.628-33.431 21.939-55.543 21.939-20.966 0-38.281-6.239-51.944-18.722-13.456-12.47-21.854-29.983-25.19-52.535l36.925-8.144c1.667 14.2 4.589 24.015 8.762 29.442 7.51 10.441 18.462 15.661 32.856 15.661 11.368 0 20.81-3.808 28.319-11.423s11.265-17.267 11.265-28.953c0-4.693-.652-8.998-1.955-12.91-1.306-3.913-3.34-7.513-6.103-10.799-2.765-3.286-6.336-6.365-10.717-9.232-4.382-2.868-9.599-5.608-15.646-8.218l-23.312-9.702c-33.066-13.979-49.598-34.429-49.598-61.347 0-18.152 6.936-33.333 20.81-45.539 13.871-12.311 31.135-18.468 51.788-18.468 27.849.003 49.597 13.525 65.243 40.564z" fill="#B93B00"/></svg>